<?xml version="1.0" encoding="utf-8"?>
<!DOCTYPE svg PUBLIC "-//W3C//DTD SVG 1.1//EN" "http://www.w3.org/Graphics/SVG/1.1/DTD/svg11.dtd">
<svg version="1.1" id="Layer_1" xmlns="http://www.w3.org/2000/svg" xmlns:xlink="http://www.w3.org/1999/xlink" x="0px" y="0px"
	 width="64px" height="64px" viewBox="0 0 64 64" enable-background="new 0 0 64 64" xml:space="preserve">
<g>
	<path fill="#33CCCC" d="M17.338,27.807c0,1.117-0.196,2.122-0.589,3.017c-0.394,0.895-0.968,1.657-1.725,2.29
		c-0.757,0.632-1.684,1.119-2.781,1.461c-1.098,0.342-2.356,0.513-3.776,0.513c-1.244,0-2.444-0.126-3.6-0.376
		c-1.156-0.25-2.227-0.626-3.212-1.128v-4.922c0.563,0.262,1.132,0.516,1.708,0.761c0.575,0.245,1.159,0.464,1.751,0.658
		c0.592,0.194,1.185,0.348,1.778,0.461c0.592,0.114,1.182,0.171,1.769,0.171c0.598,0,1.111-0.065,1.54-0.196
		c0.428-0.131,0.774-0.313,1.039-0.547s0.458-0.513,0.581-0.838c0.123-0.324,0.185-0.68,0.185-1.068c0-0.467-0.103-0.88-0.308-1.239
		c-0.206-0.359-0.493-0.695-0.862-1.009c-0.37-0.313-0.816-0.618-1.338-0.914c-0.522-0.296-1.106-0.609-1.751-0.94
		c-0.54-0.273-1.144-0.604-1.813-0.991c-0.669-0.387-1.3-0.869-1.893-1.444c-0.592-0.575-1.088-1.271-1.487-2.085
		S1.954,17.65,1.954,16.51c0-1.116,0.19-2.116,0.572-3c0.381-0.882,0.924-1.629,1.628-2.238s1.558-1.074,2.561-1.393
		c1.003-0.319,2.127-0.479,3.371-0.479c0.622,0,1.229,0.04,1.822,0.12c0.592,0.08,1.179,0.194,1.76,0.342
		c0.581,0.148,1.165,0.331,1.751,0.547c0.586,0.217,1.191,0.467,1.813,0.752l-1.76,4.119c-0.528-0.239-1.021-0.45-1.479-0.632
		c-0.458-0.182-0.904-0.336-1.338-0.461c-0.434-0.125-0.86-0.219-1.276-0.282s-0.836-0.094-1.258-0.094
		c-0.916,0-1.617,0.237-2.104,0.709c-0.487,0.473-0.73,1.102-0.73,1.888c0,0.422,0.073,0.794,0.22,1.12
		c0.147,0.324,0.381,0.629,0.704,0.914c0.323,0.285,0.739,0.576,1.25,0.872c0.51,0.296,1.129,0.632,1.857,1.008
		c0.88,0.456,1.69,0.92,2.429,1.393c0.739,0.473,1.376,0.998,1.91,1.572c0.534,0.576,0.948,1.228,1.241,1.957
		C17.191,25.973,17.338,26.827,17.338,27.807z"/>
	<path fill="#33CCCC" d="M36.947,34.745H22.126V9.76h14.821v4.341h-9.364v5.486h8.714v4.341h-8.714v6.443h9.364V34.745z"/>
	<path fill="#33CCCC" d="M52.085,20.714h10.21v12.955c-0.681,0.216-1.367,0.413-2.06,0.589c-0.692,0.177-1.411,0.325-2.156,0.444
		c-0.745,0.12-1.525,0.214-2.341,0.282c-0.816,0.068-1.682,0.103-2.597,0.103c-1.925,0-3.629-0.276-5.113-0.829
		c-1.485-0.552-2.734-1.372-3.75-2.461c-1.015-1.087-1.786-2.432-2.314-4.033c-0.528-1.6-0.792-3.449-0.792-5.545
		c0-1.959,0.293-3.731,0.88-5.315c0.587-1.583,1.452-2.931,2.597-4.042c1.145-1.11,2.553-1.965,4.225-2.563
		c1.672-0.598,3.588-0.897,5.747-0.897c1.373,0,2.717,0.143,4.031,0.427c1.313,0.285,2.517,0.655,3.608,1.111l-1.813,4.238
		c-0.798-0.387-1.698-0.712-2.701-0.974c-1.004-0.262-2.058-0.393-3.16-0.393c-1.197,0-2.273,0.203-3.23,0.607
		c-0.956,0.404-1.774,0.977-2.455,1.717c-0.681,0.741-1.203,1.635-1.566,2.683c-0.364,1.048-0.546,2.216-0.546,3.503
		c0,1.23,0.126,2.356,0.378,3.375c0.253,1.02,0.648,1.9,1.188,2.64c0.54,0.741,1.235,1.316,2.086,1.726s1.869,0.615,3.054,0.615
		c0.775,0,1.429-0.034,1.963-0.103s1.036-0.148,1.505-0.239v-5.212h-4.876V20.714z"/>
	<path fill="#888888" d="M4.432,54.953H2.291v-16.83h8.737v1.888H4.432v5.94h6.159v1.888H4.432V54.953z"/>
	<path fill="#888888" d="M23.252,54.953l-1.842-5.215h-6.274l-1.865,5.215h-2.164l6.182-16.898h1.957l6.193,16.898H23.252z
		 M20.731,47.839l-1.704-4.881c-0.046-0.138-0.102-0.307-0.167-0.507c-0.065-0.199-0.132-0.414-0.201-0.645
		c-0.069-0.229-0.138-0.47-0.208-0.719c-0.069-0.25-0.134-0.493-0.196-0.731c-0.054,0.238-0.115,0.483-0.184,0.736
		c-0.069,0.254-0.138,0.497-0.207,0.731c-0.069,0.234-0.136,0.449-0.202,0.645c-0.065,0.196-0.121,0.359-0.167,0.489l-1.669,4.881
		H20.731z"/>
	<path fill="#888888" d="M39.542,38.101v10.912c0,0.875-0.127,1.688-0.38,2.441c-0.254,0.752-0.636,1.404-1.146,1.956
		c-0.511,0.553-1.151,0.986-1.923,1.301c-0.771,0.315-1.679,0.473-2.722,0.473c-0.983,0-1.85-0.148-2.602-0.443
		c-0.752-0.296-1.383-0.716-1.894-1.261c-0.511-0.545-0.896-1.199-1.157-1.963c-0.261-0.764-0.391-1.613-0.391-2.55V38.123h2.153
		v10.959c0,1.344,0.332,2.383,0.996,3.12c0.664,0.736,1.667,1.104,3.01,1.104c0.684,0,1.271-0.104,1.762-0.311
		s0.894-0.499,1.209-0.875c0.314-0.376,0.548-0.824,0.702-1.347c0.153-0.521,0.233-1.094,0.241-1.715V38.101H39.542z"/>
	<path fill="#888888" d="M43.962,54.953v-16.83h2.141v14.919h6.597v1.911H43.962z"/>
	<path fill="#888888" d="M59.03,54.953h-2.152V40.011h-4.812v-1.888h11.765v1.888H59.03V54.953z"/>
</g>
<g>
</g>
<g>
</g>
<g>
</g>
<g>
</g>
<g>
</g>
<g>
</g>
<g>
</g>
<g>
</g>
<g>
</g>
<g>
</g>
<g>
</g>
<g>
</g>
<g>
</g>
<g>
</g>
<g>
</g>
<g>
</g>
<g>
</g>
</svg>
